<svg width="220" height="63" viewBox="0 0 220 63" fill="none" xmlns="http://www.w3.org/2000/svg">
<rect width="220" height="63" fill="white"/>
<path d="M10.2642 27V12.4545H16.0028C17.1061 12.4545 18.0459 12.6652 18.8224 13.0866C19.599 13.5033 20.1908 14.0833 20.598 14.8267C21.0099 15.5653 21.2159 16.4176 21.2159 17.3835C21.2159 18.3494 21.0076 19.2017 20.5909 19.9403C20.1742 20.679 19.5705 21.2543 18.7798 21.6662C17.9938 22.0781 17.0421 22.2841 15.9247 22.2841H12.267V19.8196H15.4276C16.0194 19.8196 16.5071 19.7178 16.8906 19.5142C17.2789 19.3059 17.5677 19.0194 17.7571 18.6548C17.9512 18.2855 18.0483 17.8617 18.0483 17.3835C18.0483 16.9006 17.9512 16.4792 17.7571 16.1193C17.5677 15.7547 17.2789 15.473 16.8906 15.2741C16.5024 15.0705 16.0099 14.9688 15.4134 14.9688H13.3395V27H10.2642ZM24.2134 27V12.4545H27.2887V18.456H33.5316V12.4545H36.5998V27H33.5316V20.9915H27.2887V27H24.2134ZM53.5018 19.7273C53.5018 21.3134 53.2011 22.6629 52.5998 23.7756C52.0032 24.8883 51.1888 25.7382 50.1566 26.3253C49.1291 26.9077 47.9738 27.1989 46.6907 27.1989C45.3981 27.1989 44.238 26.9053 43.2106 26.3182C42.1831 25.7311 41.3711 24.8812 40.7745 23.7685C40.1779 22.6558 39.8796 21.3087 39.8796 19.7273C39.8796 18.1411 40.1779 16.7917 40.7745 15.679C41.3711 14.5663 42.1831 13.7187 43.2106 13.1364C44.238 12.5492 45.3981 12.2557 46.6907 12.2557C47.9738 12.2557 49.1291 12.5492 50.1566 13.1364C51.1888 13.7187 52.0032 14.5663 52.5998 15.679C53.2011 16.7917 53.5018 18.1411 53.5018 19.7273ZM50.3839 19.7273C50.3839 18.6998 50.23 17.8333 49.9222 17.1278C49.6192 16.4223 49.1907 15.8873 48.6367 15.5227C48.0827 15.1581 47.4341 14.9759 46.6907 14.9759C45.9473 14.9759 45.2987 15.1581 44.7447 15.5227C44.1907 15.8873 43.7598 16.4223 43.4521 17.1278C43.149 17.8333 42.9975 18.6998 42.9975 19.7273C42.9975 20.7547 43.149 21.6212 43.4521 22.3267C43.7598 23.0322 44.1907 23.5672 44.7447 23.9318C45.2987 24.2964 45.9473 24.4787 46.6907 24.4787C47.4341 24.4787 48.0827 24.2964 48.6367 23.9318C49.1907 23.5672 49.6192 23.0322 49.9222 22.3267C50.23 21.6212 50.3839 20.7547 50.3839 19.7273ZM68.946 12.4545V27H66.2898L59.9616 17.8452H59.8551V27H56.7798V12.4545H59.4787L65.7571 21.6023H65.8849V12.4545H68.946ZM82.1317 17.1562C82.0323 16.8106 81.8926 16.5052 81.7127 16.2401C81.5328 15.9702 81.3126 15.7429 81.0522 15.5582C80.7965 15.3688 80.503 15.2244 80.1715 15.125C79.8448 15.0256 79.4826 14.9759 79.0849 14.9759C78.3415 14.9759 77.6881 15.1605 77.1246 15.5298C76.5659 15.8991 76.1303 16.4366 75.8178 17.142C75.5053 17.8428 75.3491 18.6998 75.3491 19.7131C75.3491 20.7263 75.503 21.5881 75.8107 22.2983C76.1185 23.0085 76.5541 23.5507 77.1175 23.9247C77.681 24.294 78.3462 24.4787 79.1133 24.4787C79.8093 24.4787 80.4035 24.3556 80.896 24.1094C81.3931 23.8584 81.7719 23.5057 82.0323 23.0511C82.2975 22.5966 82.43 22.0592 82.43 21.4389L83.055 21.5312H79.305V19.2159H85.3917V21.0483C85.3917 22.3267 85.1218 23.4252 84.582 24.3438C84.0423 25.2576 83.2989 25.9631 82.3519 26.4602C81.4049 26.9527 80.3207 27.1989 79.0991 27.1989C77.7354 27.1989 76.5375 26.8982 75.5053 26.2969C74.4731 25.6908 73.6682 24.8314 73.0906 23.7188C72.5176 22.6013 72.2312 21.2756 72.2312 19.7415C72.2312 18.5625 72.4016 17.5114 72.7425 16.5881C73.0882 15.66 73.5711 14.8741 74.1914 14.2301C74.8117 13.5862 75.5337 13.0961 76.3576 12.7599C77.1815 12.4238 78.074 12.2557 79.0352 12.2557C79.859 12.2557 80.6261 12.3764 81.3363 12.6179C82.0465 12.8546 82.6763 13.1908 83.2255 13.6264C83.7795 14.062 84.2317 14.5805 84.582 15.1818C84.9324 15.7784 85.1573 16.4366 85.2567 17.1562H82.1317ZM87.5227 14.9901V12.4545H99.4688V14.9901H95.0156V27H91.9759V14.9901H87.5227ZM102.436 27V12.4545H108.175C109.273 12.4545 110.211 12.651 110.987 13.044C111.768 13.4323 112.363 13.9839 112.77 14.6989C113.182 15.4091 113.388 16.2448 113.388 17.206C113.388 18.1719 113.179 19.0028 112.763 19.6989C112.346 20.3902 111.742 20.9205 110.952 21.2898C110.166 21.6591 109.214 21.8438 108.097 21.8438H104.254V19.3722H107.599C108.187 19.3722 108.674 19.2917 109.062 19.1307C109.451 18.9697 109.74 18.7282 109.929 18.4062C110.123 18.0843 110.22 17.6842 110.22 17.206C110.22 16.723 110.123 16.3158 109.929 15.9844C109.74 15.6529 109.448 15.402 109.055 15.2315C108.667 15.0563 108.177 14.9688 107.585 14.9688H105.511V27H102.436ZM110.291 20.3807L113.906 27H110.511L106.974 20.3807H110.291ZM129.928 19.7273C129.928 21.3134 129.627 22.6629 129.026 23.7756C128.429 24.8883 127.615 25.7382 126.582 26.3253C125.555 26.9077 124.4 27.1989 123.116 27.1989C121.824 27.1989 120.664 26.9053 119.636 26.3182C118.609 25.7311 117.797 24.8812 117.2 23.7685C116.604 22.6558 116.305 21.3087 116.305 19.7273C116.305 18.1411 116.604 16.7917 117.2 15.679C117.797 14.5663 118.609 13.7187 119.636 13.1364C120.664 12.5492 121.824 12.2557 123.116 12.2557C124.4 12.2557 125.555 12.5492 126.582 13.1364C127.615 13.7187 128.429 14.5663 129.026 15.679C129.627 16.7917 129.928 18.1411 129.928 19.7273ZM126.81 19.7273C126.81 18.6998 126.656 17.8333 126.348 17.1278C126.045 16.4223 125.616 15.8873 125.062 15.5227C124.509 15.1581 123.86 14.9759 123.116 14.9759C122.373 14.9759 121.724 15.1581 121.17 15.5227C120.616 15.8873 120.186 16.4223 119.878 17.1278C119.575 17.8333 119.423 18.6998 119.423 19.7273C119.423 20.7547 119.575 21.6212 119.878 22.3267C120.186 23.0322 120.616 23.5672 121.17 23.9318C121.724 24.2964 122.373 24.4787 123.116 24.4787C123.86 24.4787 124.509 24.2964 125.062 23.9318C125.616 23.5672 126.045 23.0322 126.348 22.3267C126.656 21.6212 126.81 20.7547 126.81 19.7273Z" fill="#0000FF"/>
<path d="M142.927 14.5653C142.859 13.8778 142.566 13.3437 142.049 12.9631C141.532 12.5824 140.831 12.392 139.944 12.392C139.342 12.392 138.833 12.4773 138.419 12.6477C138.004 12.8125 137.686 13.0426 137.464 13.3381C137.248 13.6335 137.14 13.9688 137.14 14.3438C137.129 14.6562 137.194 14.929 137.336 15.1619C137.484 15.3949 137.686 15.5966 137.941 15.767C138.197 15.9318 138.493 16.0767 138.828 16.2017C139.163 16.321 139.521 16.4233 139.902 16.5085L141.47 16.8835C142.231 17.054 142.93 17.2812 143.566 17.5653C144.203 17.8494 144.754 18.1989 145.22 18.6136C145.686 19.0284 146.047 19.517 146.302 20.0795C146.564 20.642 146.697 21.2869 146.703 22.0142C146.697 23.0824 146.424 24.0085 145.885 24.7926C145.35 25.571 144.578 26.1761 143.566 26.608C142.561 27.0341 141.348 27.2472 139.927 27.2472C138.518 27.2472 137.291 27.0312 136.245 26.5994C135.206 26.1676 134.393 25.5284 133.808 24.6818C133.228 23.8295 132.924 22.7756 132.896 21.5199H136.467C136.507 22.1051 136.674 22.5937 136.97 22.9858C137.271 23.3722 137.672 23.6648 138.172 23.8636C138.677 24.0568 139.248 24.1534 139.885 24.1534C140.51 24.1534 141.052 24.0625 141.512 23.8807C141.978 23.6989 142.339 23.446 142.595 23.1222C142.85 22.7983 142.978 22.4261 142.978 22.0057C142.978 21.6136 142.862 21.2841 142.629 21.017C142.402 20.75 142.066 20.5227 141.623 20.3352C141.186 20.1477 140.649 19.9773 140.012 19.8239L138.112 19.3466C136.64 18.9886 135.478 18.429 134.626 17.6676C133.774 16.9062 133.35 15.8807 133.356 14.5909C133.35 13.5341 133.632 12.6108 134.2 11.821C134.774 11.0312 135.561 10.4148 136.561 9.97159C137.561 9.52841 138.697 9.30682 139.97 9.30682C141.265 9.30682 142.396 9.52841 143.362 9.97159C144.333 10.4148 145.089 11.0312 145.629 11.821C146.169 12.6108 146.447 13.5256 146.464 14.5653H142.927ZM153.538 9.54545L157.757 22.8068H157.919L162.146 9.54545H166.237L160.22 27H155.465L149.439 9.54545H153.538Z" fill="#FF0000"/>
<path d="M170.226 27.0909C169.945 27.0909 169.705 26.9905 169.504 26.7898C169.303 26.589 169.203 26.3485 169.203 26.0682C169.203 25.7879 169.303 25.5473 169.504 25.3466C169.705 25.1458 169.945 25.0455 170.226 25.0455C170.506 25.0455 170.746 25.1458 170.947 25.3466C171.148 25.5473 171.248 25.7879 171.248 26.0682C171.248 26.2538 171.201 26.4242 171.106 26.5795C171.015 26.7348 170.892 26.8598 170.737 26.9545C170.585 27.0455 170.415 27.0909 170.226 27.0909ZM177.2 27.1818C176.382 27.1818 175.677 26.9886 175.086 26.6023C174.496 26.2159 174.041 25.6837 173.723 25.0057C173.405 24.3277 173.246 23.553 173.246 22.6818C173.246 21.7955 173.408 21.0133 173.734 20.3352C174.064 19.6534 174.522 19.1212 175.109 18.7386C175.7 18.3523 176.389 18.1591 177.177 18.1591C177.791 18.1591 178.344 18.2727 178.836 18.5C179.329 18.7273 179.732 19.0455 180.047 19.4545C180.361 19.8636 180.556 20.3409 180.632 20.8864H179.291C179.189 20.4886 178.961 20.1364 178.609 19.8295C178.261 19.5189 177.791 19.3636 177.2 19.3636C176.677 19.3636 176.219 19.5 175.825 19.7727C175.435 20.0417 175.13 20.4223 174.91 20.9148C174.694 21.4034 174.586 21.9773 174.586 22.6364C174.586 23.3106 174.692 23.8977 174.905 24.3977C175.121 24.8977 175.424 25.286 175.814 25.5625C176.208 25.839 176.67 25.9773 177.2 25.9773C177.549 25.9773 177.865 25.9167 178.149 25.7955C178.433 25.6742 178.674 25.5 178.871 25.2727C179.067 25.0455 179.208 24.7727 179.291 24.4545H180.632C180.556 24.9697 180.369 25.4337 180.069 25.8466C179.774 26.2557 179.382 26.5814 178.893 26.8239C178.408 27.0625 177.844 27.1818 177.2 27.1818ZM186.138 27.1818C185.35 27.1818 184.658 26.9943 184.064 26.6193C183.473 26.2443 183.011 25.7197 182.677 25.0455C182.348 24.3712 182.183 23.5833 182.183 22.6818C182.183 21.7727 182.348 20.9792 182.677 20.3011C183.011 19.6231 183.473 19.0966 184.064 18.7216C184.658 18.3466 185.35 18.1591 186.138 18.1591C186.925 18.1591 187.615 18.3466 188.206 18.7216C188.8 19.0966 189.263 19.6231 189.592 20.3011C189.925 20.9792 190.092 21.7727 190.092 22.6818C190.092 23.5833 189.925 24.3712 189.592 25.0455C189.263 25.7197 188.8 26.2443 188.206 26.6193C187.615 26.9943 186.925 27.1818 186.138 27.1818ZM186.138 25.9773C186.736 25.9773 187.228 25.8239 187.615 25.517C188.001 25.2102 188.287 24.8068 188.473 24.3068C188.658 23.8068 188.751 23.2652 188.751 22.6818C188.751 22.0985 188.658 21.5549 188.473 21.0511C188.287 20.5473 188.001 20.1402 187.615 19.8295C187.228 19.5189 186.736 19.3636 186.138 19.3636C185.539 19.3636 185.047 19.5189 184.66 19.8295C184.274 20.1402 183.988 20.5473 183.802 21.0511C183.617 21.5549 183.524 22.0985 183.524 22.6818C183.524 23.2652 183.617 23.8068 183.802 24.3068C183.988 24.8068 184.274 25.2102 184.66 25.517C185.047 25.8239 185.539 25.9773 186.138 25.9773ZM192.139 27V18.2727H193.434V19.6364H193.548C193.73 19.1705 194.023 18.8087 194.429 18.5511C194.834 18.2898 195.321 18.1591 195.889 18.1591C196.465 18.1591 196.944 18.2898 197.326 18.5511C197.713 18.8087 198.014 19.1705 198.23 19.6364H198.321C198.544 19.1856 198.88 18.8277 199.326 18.5625C199.773 18.2936 200.309 18.1591 200.934 18.1591C201.715 18.1591 202.353 18.4034 202.849 18.892C203.345 19.3769 203.594 20.1326 203.594 21.1591V27H202.253V21.1591C202.253 20.5152 202.076 20.0549 201.724 19.7784C201.372 19.5019 200.957 19.3636 200.48 19.3636C199.866 19.3636 199.391 19.5492 199.054 19.9205C198.717 20.2879 198.548 20.7538 198.548 21.3182V27H197.184V21.0227C197.184 20.5265 197.023 20.1269 196.701 19.8239C196.38 19.517 195.965 19.3636 195.457 19.3636C195.109 19.3636 194.783 19.4564 194.48 19.642C194.181 19.8277 193.938 20.0852 193.753 20.4148C193.571 20.7405 193.48 21.1174 193.48 21.5455V27H192.139Z" fill="black"/>
<path d="M9.69531 49V41H11.3867V44.5273H11.4922L14.3711 41H16.3984L13.4297 44.582L16.4336 49H14.4102L12.2188 45.7109L11.3867 46.7266V49H9.69531ZM20.092 49.1172C19.4748 49.1172 18.9436 48.9922 18.4982 48.7422C18.0555 48.4896 17.7144 48.1328 17.4748 47.6719C17.2352 47.2083 17.1154 46.6602 17.1154 46.0273C17.1154 45.4102 17.2352 44.8685 17.4748 44.4023C17.7144 43.9362 18.0516 43.5729 18.4865 43.3125C18.924 43.0521 19.437 42.9219 20.0256 42.9219C20.4214 42.9219 20.7899 42.9857 21.1311 43.1133C21.4748 43.2383 21.7743 43.4271 22.0295 43.6797C22.2873 43.9323 22.4878 44.25 22.6311 44.6328C22.7743 45.013 22.8459 45.4583 22.8459 45.9687V46.4258H17.7795V45.3945H21.2795C21.2795 45.1549 21.2274 44.9427 21.1232 44.7578C21.0191 44.5729 20.8745 44.4284 20.6896 44.3242C20.5074 44.2174 20.2951 44.1641 20.0529 44.1641C19.8003 44.1641 19.5764 44.2227 19.3811 44.3398C19.1883 44.4544 19.0373 44.6094 18.9279 44.8047C18.8186 44.9974 18.7626 45.2122 18.76 45.4492V46.4297C18.76 46.7266 18.8146 46.9831 18.924 47.1992C19.036 47.4154 19.1936 47.582 19.3967 47.6992C19.5998 47.8164 19.8407 47.875 20.1193 47.875C20.3042 47.875 20.4735 47.849 20.6271 47.7969C20.7808 47.7448 20.9123 47.6667 21.0217 47.5625C21.1311 47.4583 21.2144 47.3307 21.2717 47.1797L22.8107 47.2812C22.7326 47.651 22.5725 47.974 22.3303 48.25C22.0907 48.5234 21.7808 48.737 21.4006 48.8906C21.023 49.0417 20.5868 49.1172 20.092 49.1172ZM20.7717 42.2812L19.9865 41.3281L19.2014 42.2812H17.7834V42.2266L19.3654 40.5078H20.6037L22.1896 42.2266V42.2812H20.7717ZM26.1459 45.5313V49H24.4818V43H26.0678V44.0586H26.1381C26.2709 43.7096 26.4936 43.4336 26.8061 43.2305C27.1186 43.0247 27.4975 42.9219 27.9428 42.9219C28.3594 42.9219 28.7227 43.013 29.0326 43.1953C29.3425 43.3776 29.5834 43.638 29.7553 43.9766C29.9271 44.3125 30.0131 44.7135 30.0131 45.1797V49H28.349V45.4766C28.3516 45.1094 28.2579 44.8229 28.0678 44.6172C27.8777 44.4089 27.616 44.3047 27.2826 44.3047C27.0587 44.3047 26.8607 44.3529 26.6889 44.4492C26.5196 44.5456 26.3868 44.6862 26.2904 44.8711C26.1967 45.0534 26.1485 45.2734 26.1459 45.5313ZM33.5387 45.5313V49H31.8746V41H33.4918V44.0586H33.5621C33.6975 43.7044 33.9163 43.4271 34.2184 43.2266C34.5204 43.0234 34.8993 42.9219 35.3551 42.9219C35.7717 42.9219 36.135 43.013 36.4449 43.1953C36.7574 43.375 36.9996 43.6341 37.1715 43.9727C37.346 44.3086 37.4319 44.7109 37.4293 45.1797V49H35.7652V45.4766C35.7678 45.1068 35.6741 44.819 35.484 44.6133C35.2965 44.4076 35.0335 44.3047 34.6949 44.3047C34.4684 44.3047 34.2678 44.3529 34.0934 44.4492C33.9215 44.5456 33.7861 44.6862 33.6871 44.8711C33.5908 45.0534 33.5413 45.2734 33.5387 45.5313ZM45.5762 43V44.25H41.9629V43H45.5762ZM42.7832 41.5625H44.4473V47.1562C44.4473 47.3099 44.4707 47.4297 44.5176 47.5156C44.5645 47.599 44.6296 47.6576 44.7129 47.6914C44.7988 47.7253 44.8978 47.7422 45.0098 47.7422C45.0879 47.7422 45.166 47.7357 45.2441 47.7227C45.3223 47.707 45.3822 47.6953 45.4238 47.6875L45.6855 48.9258C45.6022 48.9518 45.485 48.9818 45.334 49.0156C45.1829 49.0521 44.9993 49.0742 44.7832 49.082C44.3822 49.0977 44.0306 49.0443 43.7285 48.9219C43.429 48.7995 43.196 48.6094 43.0293 48.3516C42.8626 48.0937 42.7806 47.7682 42.7832 47.375V41.5625ZM49.0031 45.5313V49H47.3391V41H48.9562V44.0586H49.0266C49.162 43.7044 49.3807 43.4271 49.6828 43.2266C49.9849 43.0234 50.3638 42.9219 50.8195 42.9219C51.2362 42.9219 51.5995 43.013 51.9094 43.1953C52.2219 43.375 52.4641 43.6341 52.6359 43.9727C52.8104 44.3086 52.8964 44.7109 52.8937 45.1797V49H51.2297V45.4766C51.2323 45.1068 51.1385 44.819 50.9484 44.6133C50.7609 44.4076 50.4979 44.3047 50.1594 44.3047C49.9328 44.3047 49.7323 44.3529 49.5578 44.4492C49.3859 44.5456 49.2505 44.6862 49.1516 44.8711C49.0552 45.0534 49.0057 45.2734 49.0031 45.5313ZM57.4643 49.1172C56.8575 49.1172 56.3327 48.9883 55.89 48.7305C55.4499 48.4701 55.1101 48.1081 54.8705 47.6445C54.6309 47.1784 54.5111 46.638 54.5111 46.0234C54.5111 45.4036 54.6309 44.862 54.8705 44.3984C55.1101 43.9323 55.4499 43.5703 55.89 43.3125C56.3327 43.0521 56.8575 42.9219 57.4643 42.9219C58.071 42.9219 58.5945 43.0521 59.0346 43.3125C59.4773 43.5703 59.8184 43.9323 60.058 44.3984C60.2976 44.862 60.4174 45.4036 60.4174 46.0234C60.4174 46.638 60.2976 47.1784 60.058 47.6445C59.8184 48.1081 59.4773 48.4701 59.0346 48.7305C58.5945 48.9883 58.071 49.1172 57.4643 49.1172ZM57.4721 47.8281C57.7481 47.8281 57.9786 47.75 58.1635 47.5938C58.3484 47.4349 58.4877 47.2187 58.5814 46.9453C58.6778 46.6719 58.726 46.3607 58.726 46.0117C58.726 45.6628 58.6778 45.3516 58.5814 45.0781C58.4877 44.8047 58.3484 44.5885 58.1635 44.4297C57.9786 44.2708 57.7481 44.1914 57.4721 44.1914C57.1934 44.1914 56.959 44.2708 56.7689 44.4297C56.5814 44.5885 56.4395 44.8047 56.3432 45.0781C56.2494 45.3516 56.2025 45.6628 56.2025 46.0117C56.2025 46.3607 56.2494 46.6719 56.3432 46.9453C56.4395 47.2187 56.5814 47.4349 56.7689 47.5938C56.959 47.75 57.1934 47.8281 57.4721 47.8281ZM58.2494 42.2812L57.4643 41.3281L56.6791 42.2812H55.2611V42.2266L56.8432 40.5078H58.0814L59.6674 42.2266V42.2812H58.2494ZM63.7135 45.5313V49H62.0494V43H63.6354V44.0586H63.7057C63.8385 43.7096 64.0611 43.4336 64.3736 43.2305C64.6861 43.0247 65.065 42.9219 65.5104 42.9219C65.927 42.9219 66.2903 43.013 66.6002 43.1953C66.9101 43.3776 67.151 43.638 67.3229 43.9766C67.4947 44.3125 67.5807 44.7135 67.5807 45.1797V49H65.9166V45.4766C65.9192 45.1094 65.8255 44.8229 65.6354 44.6172C65.4452 44.4089 65.1835 44.3047 64.8502 44.3047C64.6262 44.3047 64.4283 44.3529 64.2564 44.4492C64.0872 44.5456 63.9544 44.6862 63.858 44.8711C63.7643 45.0534 63.7161 45.2734 63.7135 45.5313ZM72.1453 51.375C71.6063 51.375 71.144 51.3008 70.7586 51.1523C70.3758 51.0065 70.0711 50.8073 69.8445 50.5547C69.618 50.3021 69.4708 50.0182 69.4031 49.7031L70.9422 49.4961C70.9891 49.6159 71.0633 49.7279 71.1648 49.832C71.2664 49.9362 71.4005 50.0195 71.5672 50.082C71.7365 50.1471 71.9422 50.1797 72.1844 50.1797C72.5464 50.1797 72.8445 50.0911 73.0789 49.9141C73.3159 49.7396 73.4344 49.4466 73.4344 49.0352V47.9375H73.3641C73.2911 48.1042 73.1818 48.2617 73.0359 48.4102C72.8901 48.5586 72.7026 48.6797 72.4734 48.7734C72.2443 48.8672 71.9708 48.9141 71.6531 48.9141C71.2026 48.9141 70.7924 48.8099 70.4227 48.6016C70.0555 48.3906 69.7625 48.069 69.5438 47.6367C69.3276 47.2018 69.2195 46.6523 69.2195 45.9883C69.2195 45.3086 69.3302 44.7409 69.5516 44.2852C69.7729 43.8294 70.0672 43.4883 70.4344 43.2617C70.8042 43.0352 71.2091 42.9219 71.6492 42.9219C71.9852 42.9219 72.2664 42.9792 72.493 43.0938C72.7195 43.2057 72.9018 43.3464 73.0398 43.5156C73.1805 43.6823 73.2885 43.8464 73.3641 44.0078H73.4266V43H75.0789V49.0586C75.0789 49.569 74.9539 49.9961 74.7039 50.3398C74.4539 50.6836 74.1076 50.9414 73.6648 51.1133C73.2247 51.2878 72.7182 51.375 72.1453 51.375ZM72.1805 47.6641C72.4487 47.6641 72.6753 47.5977 72.8602 47.4648C73.0477 47.3294 73.1909 47.1367 73.2898 46.8867C73.3914 46.6341 73.4422 46.332 73.4422 45.9805C73.4422 45.6289 73.3927 45.3242 73.2938 45.0664C73.1948 44.806 73.0516 44.6042 72.8641 44.4609C72.6766 44.3177 72.4487 44.2461 72.1805 44.2461C71.907 44.2461 71.6766 44.3203 71.4891 44.4687C71.3016 44.6146 71.1596 44.8177 71.0633 45.0781C70.9669 45.3385 70.9188 45.6393 70.9188 45.9805C70.9188 46.3268 70.9669 46.6263 71.0633 46.8789C71.1622 47.1289 71.3042 47.3229 71.4891 47.4609C71.6766 47.5964 71.907 47.6641 72.1805 47.6641ZM83.2404 43V44.25H79.6272V43H83.2404ZM80.4475 41.5625H82.1115V47.1562C82.1115 47.3099 82.135 47.4297 82.1818 47.5156C82.2287 47.599 82.2938 47.6576 82.3772 47.6914C82.4631 47.7253 82.562 47.7422 82.674 47.7422C82.7522 47.7422 82.8303 47.7357 82.9084 47.7227C82.9865 47.707 83.0464 47.6953 83.0881 47.6875L83.3498 48.9258C83.2665 48.9518 83.1493 48.9818 82.9982 49.0156C82.8472 49.0521 82.6636 49.0742 82.4475 49.082C82.0464 49.0977 81.6949 49.0443 81.3928 48.9219C81.0933 48.7995 80.8602 48.6094 80.6936 48.3516C80.5269 48.0937 80.4449 47.7682 80.4475 47.375V41.5625ZM84.8744 49V43H86.5385V49H84.8744ZM85.7104 42.2266C85.463 42.2266 85.2507 42.1445 85.0736 41.9805C84.8992 41.8138 84.8119 41.6146 84.8119 41.3828C84.8119 41.1536 84.8992 40.957 85.0736 40.793C85.2507 40.6263 85.463 40.543 85.7104 40.543C85.9577 40.543 86.1687 40.6263 86.3432 40.793C86.5202 40.957 86.6088 41.1536 86.6088 41.3828C86.6088 41.6146 86.5202 41.8138 86.3432 41.9805C86.1687 42.1445 85.9577 42.2266 85.7104 42.2266ZM90.0855 45.5313V49H88.4215V43H90.0074V44.0586H90.0777C90.2105 43.7096 90.4332 43.4336 90.7457 43.2305C91.0582 43.0247 91.4371 42.9219 91.8824 42.9219C92.2991 42.9219 92.6624 43.013 92.9723 43.1953C93.2822 43.3776 93.523 43.638 93.6949 43.9766C93.8668 44.3125 93.9527 44.7135 93.9527 45.1797V49H92.2887V45.4766C92.2913 45.1094 92.1975 44.8229 92.0074 44.6172C91.8173 44.4089 91.5556 44.3047 91.2223 44.3047C90.9983 44.3047 90.8004 44.3529 90.6285 44.4492C90.4592 44.5456 90.3264 44.6862 90.2301 44.8711C90.1363 45.0534 90.0882 45.2734 90.0855 45.5313ZM98.9102 51.25V43H100.551V44.0078H100.625C100.698 43.8464 100.803 43.6823 100.941 43.5156C101.082 43.3464 101.264 43.2057 101.488 43.0938C101.715 42.9792 101.996 42.9219 102.332 42.9219C102.77 42.9219 103.173 43.0365 103.543 43.2656C103.913 43.4922 104.208 43.8346 104.43 44.293C104.651 44.7487 104.762 45.3203 104.762 46.0078C104.762 46.6771 104.654 47.2422 104.438 47.7031C104.224 48.1615 103.932 48.5091 103.563 48.7461C103.195 48.9805 102.784 49.0977 102.328 49.0977C102.005 49.0977 101.73 49.0443 101.504 48.9375C101.28 48.8307 101.096 48.6966 100.953 48.5352C100.81 48.3711 100.701 48.2057 100.625 48.0391H100.574V51.25H98.9102ZM100.539 46C100.539 46.3568 100.589 46.668 100.688 46.9336C100.786 47.1992 100.93 47.4062 101.117 47.5547C101.305 47.7005 101.533 47.7734 101.801 47.7734C102.072 47.7734 102.301 47.6992 102.488 47.5508C102.676 47.3997 102.818 47.1914 102.914 46.9258C103.013 46.6576 103.063 46.349 103.063 46C103.063 45.6536 103.014 45.349 102.918 45.0859C102.822 44.8229 102.68 44.6172 102.492 44.4687C102.305 44.3203 102.074 44.2461 101.801 44.2461C101.53 44.2461 101.301 44.3177 101.113 44.4609C100.928 44.6042 100.786 44.8073 100.688 45.0703C100.589 45.3333 100.539 45.6432 100.539 46ZM108.085 45.5313V49H106.421V41H108.038V44.0586H108.109C108.244 43.7044 108.463 43.4271 108.765 43.2266C109.067 43.0234 109.446 42.9219 109.902 42.9219C110.318 42.9219 110.682 43.013 110.991 43.1953C111.304 43.375 111.546 43.6341 111.718 43.9727C111.892 44.3086 111.978 44.7109 111.976 45.1797V49H110.312V45.4766C110.314 45.1068 110.221 44.819 110.03 44.6133C109.843 44.4076 109.58 44.3047 109.241 44.3047C109.015 44.3047 108.814 44.3529 108.64 44.4492C108.468 44.5456 108.333 44.6862 108.234 44.8711C108.137 45.0534 108.088 45.2734 108.085 45.5313ZM116.546 49.1172C115.94 49.1172 115.415 48.9883 114.972 48.7305C114.532 48.4701 114.192 48.1081 113.953 47.6445C113.713 47.1784 113.593 46.638 113.593 46.0234C113.593 45.4036 113.713 44.862 113.953 44.3984C114.192 43.9323 114.532 43.5703 114.972 43.3125C115.415 43.0521 115.94 42.9219 116.546 42.9219C117.153 42.9219 117.676 43.0521 118.117 43.3125C118.559 43.5703 118.9 43.9323 119.14 44.3984C119.38 44.862 119.499 45.4036 119.499 46.0234C119.499 46.638 119.38 47.1784 119.14 47.6445C118.9 48.1081 118.559 48.4701 118.117 48.7305C117.676 48.9883 117.153 49.1172 116.546 49.1172ZM116.554 47.8281C116.83 47.8281 117.061 47.75 117.246 47.5938C117.43 47.4349 117.57 47.2187 117.663 46.9453C117.76 46.6719 117.808 46.3607 117.808 46.0117C117.808 45.6628 117.76 45.3516 117.663 45.0781C117.57 44.8047 117.43 44.5885 117.246 44.4297C117.061 44.2708 116.83 44.1914 116.554 44.1914C116.275 44.1914 116.041 44.2708 115.851 44.4297C115.663 44.5885 115.522 44.8047 115.425 45.0781C115.331 45.3516 115.285 45.6628 115.285 46.0117C115.285 46.3607 115.331 46.6719 115.425 46.9453C115.522 47.2187 115.663 47.4349 115.851 47.5938C116.041 47.75 116.275 47.8281 116.554 47.8281ZM115.968 42.2266L114.777 40.4492H116.312L117.144 42.2266H115.968ZM122.796 45.5313V49H121.131V43H122.717V44.0586H122.788C122.921 43.7096 123.143 43.4336 123.456 43.2305C123.768 43.0247 124.147 42.9219 124.592 42.9219C125.009 42.9219 125.372 43.013 125.682 43.1953C125.992 43.3776 126.233 43.638 126.405 43.9766C126.577 44.3125 126.663 44.7135 126.663 45.1797V49H124.999V45.4766C125.001 45.1094 124.907 44.8229 124.717 44.6172C124.527 44.4089 124.266 44.3047 123.932 44.3047C123.708 44.3047 123.51 44.3529 123.338 44.4492C123.169 44.5456 123.036 44.6862 122.94 44.8711C122.846 45.0534 122.798 45.2734 122.796 45.5313ZM131.227 51.375C130.688 51.375 130.226 51.3008 129.841 51.1523C129.458 51.0065 129.153 50.8073 128.927 50.5547C128.7 50.3021 128.553 50.0182 128.485 49.7031L130.024 49.4961C130.071 49.6159 130.145 49.7279 130.247 49.832C130.348 49.9362 130.483 50.0195 130.649 50.082C130.818 50.1471 131.024 50.1797 131.266 50.1797C131.628 50.1797 131.927 50.0911 132.161 49.9141C132.398 49.7396 132.516 49.4466 132.516 49.0352V47.9375H132.446C132.373 48.1042 132.264 48.2617 132.118 48.4102C131.972 48.5586 131.785 48.6797 131.555 48.7734C131.326 48.8672 131.053 48.9141 130.735 48.9141C130.285 48.9141 129.874 48.8099 129.505 48.6016C129.137 48.3906 128.845 48.069 128.626 47.6367C128.41 47.2018 128.302 46.6523 128.302 45.9883C128.302 45.3086 128.412 44.7409 128.634 44.2852C128.855 43.8294 129.149 43.4883 129.516 43.2617C129.886 43.0352 130.291 42.9219 130.731 42.9219C131.067 42.9219 131.348 42.9792 131.575 43.0938C131.802 43.2057 131.984 43.3464 132.122 43.5156C132.262 43.6823 132.371 43.8464 132.446 44.0078H132.509V43H134.161V49.0586C134.161 49.569 134.036 49.9961 133.786 50.3398C133.536 50.6836 133.19 50.9414 132.747 51.1133C132.307 51.2878 131.8 51.375 131.227 51.375ZM131.262 47.6641C131.531 47.6641 131.757 47.5977 131.942 47.4648C132.13 47.3294 132.273 47.1367 132.372 46.8867C132.473 46.6341 132.524 46.332 132.524 45.9805C132.524 45.6289 132.475 45.3242 132.376 45.0664C132.277 44.806 132.134 44.6042 131.946 44.4609C131.759 44.3177 131.531 44.2461 131.262 44.2461C130.989 44.2461 130.759 44.3203 130.571 44.4687C130.384 44.6146 130.242 44.8177 130.145 45.0781C130.049 45.3385 130.001 45.6393 130.001 45.9805C130.001 46.3268 130.049 46.6263 130.145 46.8789C130.244 47.1289 130.386 47.3229 130.571 47.4609C130.759 47.5964 130.989 47.6641 131.262 47.6641ZM142.322 43V44.25H138.709V43H142.322ZM139.529 41.5625H141.194V47.1562C141.194 47.3099 141.217 47.4297 141.264 47.5156C141.311 47.599 141.376 47.6576 141.459 47.6914C141.545 47.7253 141.644 47.7422 141.756 47.7422C141.834 47.7422 141.912 47.7357 141.99 47.7227C142.069 47.707 142.128 47.6953 142.17 47.6875L142.432 48.9258C142.349 48.9518 142.231 48.9818 142.08 49.0156C141.929 49.0521 141.746 49.0742 141.529 49.082C141.128 49.0977 140.777 49.0443 140.475 48.9219C140.175 48.7995 139.942 48.6094 139.776 48.3516C139.609 48.0937 139.527 47.7682 139.529 47.375V41.5625ZM143.956 49V43H145.57V44.0469H145.632C145.742 43.6745 145.925 43.3932 146.183 43.2031C146.441 43.0104 146.738 42.9141 147.074 42.9141C147.157 42.9141 147.247 42.9193 147.343 42.9297C147.44 42.9401 147.524 42.9544 147.597 42.9727V44.4492C147.519 44.4258 147.411 44.4049 147.273 44.3867C147.135 44.3685 147.009 44.3594 146.894 44.3594C146.649 44.3594 146.43 44.4128 146.238 44.5195C146.048 44.6237 145.897 44.7695 145.785 44.957C145.675 45.1445 145.621 45.3607 145.621 45.6055V49H143.956ZM151.439 49.1172C150.832 49.1172 150.308 48.9883 149.865 48.7305C149.425 48.4701 149.085 48.1081 148.845 47.6445C148.606 47.1784 148.486 46.638 148.486 46.0234C148.486 45.4036 148.606 44.862 148.845 44.3984C149.085 43.9323 149.425 43.5703 149.865 43.3125C150.308 43.0521 150.832 42.9219 151.439 42.9219C152.046 42.9219 152.569 43.0521 153.009 43.3125C153.452 43.5703 153.793 43.9323 154.033 44.3984C154.272 44.862 154.392 45.4036 154.392 46.0234C154.392 46.638 154.272 47.1784 154.033 47.6445C153.793 48.1081 153.452 48.4701 153.009 48.7305C152.569 48.9883 152.046 49.1172 151.439 49.1172ZM151.447 47.8281C151.723 47.8281 151.953 47.75 152.138 47.5938C152.323 47.4349 152.462 47.2187 152.556 46.9453C152.653 46.6719 152.701 46.3607 152.701 46.0117C152.701 45.6628 152.653 45.3516 152.556 45.0781C152.462 44.8047 152.323 44.5885 152.138 44.4297C151.953 44.2708 151.723 44.1914 151.447 44.1914C151.168 44.1914 150.934 44.2708 150.744 44.4297C150.556 44.5885 150.414 44.8047 150.318 45.0781C150.224 45.3516 150.177 45.6628 150.177 46.0117C150.177 46.3607 150.224 46.6719 150.318 46.9453C150.414 47.2187 150.556 47.4349 150.744 47.5938C150.934 47.75 151.168 47.8281 151.447 47.8281ZM151.439 51.2461C151.192 51.2461 150.979 51.1641 150.802 51C150.625 50.8359 150.537 50.638 150.537 50.4062C150.537 50.1745 150.625 49.9766 150.802 49.8125C150.979 49.6484 151.192 49.5664 151.439 49.5664C151.686 49.5664 151.897 49.6484 152.072 49.8125C152.249 49.9766 152.337 50.1745 152.337 50.4062C152.337 50.638 152.249 50.8359 152.072 51C151.897 51.1641 151.686 51.2461 151.439 51.2461ZM164.112 44.7109L162.589 44.8047C162.563 44.6745 162.507 44.5573 162.421 44.4531C162.335 44.3464 162.222 44.2617 162.081 44.1992C161.943 44.1341 161.778 44.1016 161.585 44.1016C161.327 44.1016 161.11 44.1562 160.933 44.2656C160.756 44.3724 160.667 44.5156 160.667 44.6953C160.667 44.8385 160.724 44.9596 160.839 45.0586C160.953 45.1576 161.15 45.237 161.429 45.2969L162.515 45.5156C163.098 45.6354 163.533 45.8281 163.819 46.0937C164.106 46.3594 164.249 46.7083 164.249 47.1406C164.249 47.5339 164.133 47.8789 163.901 48.1758C163.672 48.4727 163.357 48.7044 162.956 48.8711C162.558 49.0352 162.098 49.1172 161.577 49.1172C160.783 49.1172 160.15 48.9518 159.679 48.6211C159.21 48.2878 158.935 47.8346 158.854 47.2617L160.491 47.1758C160.541 47.418 160.66 47.6029 160.851 47.7305C161.041 47.8555 161.284 47.918 161.581 47.918C161.873 47.918 162.107 47.862 162.284 47.75C162.464 47.6354 162.555 47.4883 162.558 47.3086C162.555 47.1576 162.491 47.0339 162.366 46.9375C162.241 46.8385 162.049 46.763 161.788 46.7109L160.749 46.5039C160.163 46.3867 159.727 46.1836 159.44 45.8945C159.157 45.6055 159.015 45.237 159.015 44.7891C159.015 44.4036 159.119 44.0716 159.327 43.793C159.538 43.5143 159.834 43.2995 160.214 43.1484C160.597 42.9974 161.045 42.9219 161.558 42.9219C162.315 42.9219 162.912 43.082 163.347 43.4023C163.784 43.7227 164.039 44.1589 164.112 44.7109ZM165.847 49V43H167.511V49H165.847ZM166.683 42.2266C166.435 42.2266 166.223 42.1445 166.046 41.9805C165.872 41.8138 165.784 41.6146 165.784 41.3828C165.784 41.1536 165.872 40.957 166.046 40.793C166.223 40.6263 166.435 40.543 166.683 40.543C166.93 40.543 167.141 40.6263 167.316 40.793C167.493 40.957 167.581 41.1536 167.581 41.3828C167.581 41.6146 167.493 41.8138 167.316 41.9805C167.141 42.1445 166.93 42.2266 166.683 42.2266ZM171.058 45.5313V49H169.394V43H170.98V44.0586H171.05C171.183 43.7096 171.406 43.4336 171.718 43.2305C172.031 43.0247 172.41 42.9219 172.855 42.9219C173.272 42.9219 173.635 43.013 173.945 43.1953C174.255 43.3776 174.496 43.638 174.667 43.9766C174.839 44.3125 174.925 44.7135 174.925 45.1797V49H173.261V45.4766C173.264 45.1094 173.17 44.8229 172.98 44.6172C172.79 44.4089 172.528 44.3047 172.195 44.3047C171.971 44.3047 171.773 44.3529 171.601 44.4492C171.432 44.5456 171.299 44.6862 171.203 44.8711C171.109 45.0534 171.061 45.2734 171.058 45.5313ZM178.451 45.5313V49H176.787V41H178.404V44.0586H178.474C178.61 43.7044 178.828 43.4271 179.13 43.2266C179.433 43.0234 179.811 42.9219 180.267 42.9219C180.684 42.9219 181.047 43.013 181.357 43.1953C181.67 43.375 181.912 43.6341 182.084 43.9727C182.258 44.3086 182.344 44.7109 182.341 45.1797V49H180.677V45.4766C180.68 45.1068 180.586 44.819 180.396 44.6133C180.209 44.4076 179.946 44.3047 179.607 44.3047C179.38 44.3047 179.18 44.3529 179.005 44.4492C178.834 44.5456 178.698 44.6862 178.599 44.8711C178.503 45.0534 178.453 45.2734 178.451 45.5313ZM192.891 43L190.793 49H188.918L186.82 43H188.578L189.824 47.293H189.887L191.129 43H192.891ZM194.292 49V43H195.956V49H194.292ZM195.128 42.2266C194.881 42.2266 194.668 42.1445 194.491 41.9805C194.317 41.8138 194.23 41.6146 194.23 41.3828C194.23 41.1536 194.317 40.957 194.491 40.793C194.668 40.6263 194.881 40.543 195.128 40.543C195.376 40.543 195.586 40.6263 195.761 40.793C195.938 40.957 196.027 41.1536 196.027 41.3828C196.027 41.6146 195.938 41.8138 195.761 41.9805C195.586 42.1445 195.376 42.2266 195.128 42.2266ZM200.574 49.1172C199.956 49.1172 199.425 48.9922 198.98 48.7422C198.537 48.4896 198.196 48.1328 197.956 47.6719C197.717 47.2083 197.597 46.6602 197.597 46.0273C197.597 45.4102 197.717 44.8685 197.956 44.4023C198.196 43.9362 198.533 43.5729 198.968 43.3125C199.406 43.0521 199.919 42.9219 200.507 42.9219C200.903 42.9219 201.272 42.9857 201.613 43.1133C201.956 43.2383 202.256 43.4271 202.511 43.6797C202.769 43.9323 202.969 44.25 203.113 44.6328C203.256 45.013 203.328 45.4583 203.328 45.9687V46.4258H198.261V45.3945H201.761C201.761 45.1549 201.709 44.9427 201.605 44.7578C201.501 44.5729 201.356 44.4284 201.171 44.3242C200.989 44.2174 200.777 44.1641 200.535 44.1641C200.282 44.1641 200.058 44.2227 199.863 44.3398C199.67 44.4544 199.519 44.6094 199.41 44.8047C199.3 44.9974 199.244 45.2122 199.242 45.4492V46.4297C199.242 46.7266 199.296 46.9831 199.406 47.1992C199.518 47.4154 199.675 47.582 199.878 47.6992C200.081 47.8164 200.322 47.875 200.601 47.875C200.786 47.875 200.955 47.849 201.109 47.7969C201.262 47.7448 201.394 47.6667 201.503 47.5625C201.613 47.4583 201.696 47.3307 201.753 47.1797L203.292 47.2812C203.214 47.651 203.054 47.974 202.812 48.25C202.572 48.5234 202.262 48.737 201.882 48.8906C201.505 49.0417 201.068 49.1172 200.574 49.1172ZM201.253 42.2812L200.468 41.3281L199.683 42.2812H198.265V42.2266L199.847 40.5078H201.085L202.671 42.2266V42.2812H201.253ZM206.628 45.5313V49H204.963V43H206.549V44.0586H206.62C206.753 43.7096 206.975 43.4336 207.288 43.2305C207.6 43.0247 207.979 42.9219 208.424 42.9219C208.841 42.9219 209.204 43.013 209.514 43.1953C209.824 43.3776 210.065 43.638 210.237 43.9766C210.409 44.3125 210.495 44.7135 210.495 45.1797V49H208.831V45.4766C208.833 45.1094 208.74 44.8229 208.549 44.6172C208.359 44.4089 208.098 44.3047 207.764 44.3047C207.54 44.3047 207.342 44.3529 207.171 44.4492C207.001 44.5456 206.868 44.6862 206.772 44.8711C206.678 45.0534 206.63 45.2734 206.628 45.5313Z" fill="black"/>
</svg>
